<?xml version="1.0" encoding="utf-8"?>
<!-- Generator: Adobe Illustrator 23.0.1, SVG Export Plug-In . SVG Version: 6.00 Build 0)  -->
<svg version="1.1" id="ac40b6c7-c2ea-4a85-abe2-e42e72a37000"
	 xmlns="http://www.w3.org/2000/svg" xmlns:xlink="http://www.w3.org/1999/xlink" x="0px" y="0px" viewBox="0 0 764.2 572.6"
	 style="enable-background:new 0 0 764.2 572.6;" xml:space="preserve">
<style type="text/css">
	.st0{fill:#FFFFFF;}
	.st1{fill:#F2F2F2;}
	.st2{fill:#E6E6E6;}
	.st3{fill:#3F3D56;}
	.st4{fill:#CCCCCC;}
	.st5{fill:#FF6584;}
	.st6{fill:#6C63FF;}
	.st7{fill:#FE5400;}
	.st8{fill:#002458;}
</style>
<path class="st0" d="M731.2,531.6H156c-18.2,0-33-14.8-33-33v-307c0-18.2,14.8-33,33-33h575.2c18.2,0,33,14.8,33,33v307
	C764.2,516.8,749.4,531.5,731.2,531.6z"/>
<path class="st1" d="M731.2,531.6H156c-18.2,0-33-14.8-33-33v-307c0-18.2,14.8-33,33-33h575.2c18.2,0,33,14.8,33,33v307
	C764.2,516.8,749.4,531.5,731.2,531.6z M156,160.6c-17.1,0-31,13.9-31,31v307c0,17.1,13.9,31,31,31h575.2c17.1,0,31-13.9,31-31v-307
	c0-17.1-13.9-31-31-31H156z"/>
<path class="st1" d="M731.2,507.6H156c-5,0-9-4-9-9v-307c0-5,4-9,9-9h575.2c5,0,9,4,9,9v307C740.2,503.5,736.1,507.6,731.2,507.6z
	 M156,184.6c-3.9,0-7,3.1-7,7v307c0,3.9,3.1,7,7,7h575.2c3.9,0,7-3.1,7-7v-307c0-3.9-3.1-7-7-7H156z"/>
<path class="st1" d="M584.8,509l-556-147.4C11.2,357,0.7,338.9,5.4,321.3L84,24.5c4.7-17.6,22.7-28.1,40.4-23.4l556,147.4
	c17.6,4.7,28.1,22.7,23.4,40.4l-78.7,296.8C620.5,503.2,602.4,513.7,584.8,509z"/>
<path class="st2" d="M584.8,509l-556-147.4C11.2,357,0.7,338.9,5.4,321.3L84,24.5c4.7-17.6,22.7-28.1,40.4-23.4l556,147.4
	c17.6,4.7,28.1,22.7,23.4,40.4l-78.7,296.8C620.5,503.2,602.4,513.7,584.8,509z M123.9,3c-16.5-4.4-33.5,5.5-37.9,22L7.3,321.8
	c-4.4,16.5,5.5,33.5,22,37.9l556,147.4c16.5,4.4,33.5-5.5,37.9-22l78.7-296.8c4.4-16.5-5.5-33.5-22-37.9L123.9,3z"/>
<path class="st0" d="M590.9,485.8L35,338.5c-4.8-1.3-7.7-6.2-6.4-11l78.7-296.8c1.3-4.8,6.2-7.7,11-6.4l556,147.4
	c4.8,1.3,7.7,6.2,6.4,11l-78.7,296.8C600.7,484.2,595.7,487.1,590.9,485.8z M117.7,26.2c-3.7-1-7.6,1.2-8.6,5L30.5,328
	c-1,3.7,1.2,7.6,5,8.6l556,147.4c3.7,1,7.6-1.2,8.6-5l78.7-296.8c1-3.7-1.2-7.6-5-8.6L117.7,26.2z"/>
<path class="st0" d="M608.2,572.6H33c-18.2,0-33-14.8-33-33v-307c0-18.2,14.8-33,33-33h575.2c18.2,0,33,14.8,33,33v307
	C641.2,557.8,626.4,572.5,608.2,572.6z"/>
<path class="st2" d="M451.9,546.6H80.5c-0.5,0-0.9,0-1.4,0l175.7-98.9c3.3-1.9,10.8-2.6,16.8-1.5c1.6,0.2,3.2,0.8,4.6,1.5L394.1,514
	l5.6,3.2L451.9,546.6z"/>
<path class="st2" d="M569.1,546.6H247.8l62.3-29.4l4.5-2.1l81.1-38.3c5.3-2.5,18.1-2.7,24.4-0.5c0.4,0.1,0.8,0.3,1.2,0.5
	L569.1,546.6z"/>
<path class="st3" d="M33,201.6c-17.1,0-31,13.9-31,31v307c0,17.1,13.9,31,31,31h575.2c17.1,0,31-13.9,31-31v-307
	c0-17.1-13.9-31-31-31H33z"/>
<path class="st4" d="M608.2,548.6H33c-5,0-9-4-9-9v-307c0-5,4-9,9-9h575.2c5,0,9,4,9,9v307C617.2,544.5,613.1,548.6,608.2,548.6z
	 M33,225.6c-3.9,0-7,3.1-7,7v307c0,3.9,3.1,7,7,7h575.2c3.9,0,7-3.1,7-7v-307c0-3.9-3.1-7-7-7H33z"/>
<ellipse transform="matrix(0.7071 -0.7071 0.7071 0.7071 -13.4557 403.2325)" class="st5" cx="480" cy="217.9" rx="61.9" ry="61.9"/>
<ellipse class="st1" cx="505.9" cy="345.1" rx="78.4" ry="98.1"/>
<polygon class="st4" points="506.1,325.4 506.3,325.4 510.2,547.7 502,547.7 "/>
<path class="st4" d="M519.5,472.5L519.5,472.5c0.5,0.9,0.1,2.1-0.8,2.6l-11.2,5.9l-1.8-3.4l11.2-5.9
	C517.8,471.2,519,471.6,519.5,472.5z"/>
<ellipse class="st1" cx="280.5" cy="345.1" rx="78.4" ry="98.1"/>
<path class="st4" d="M294.1,476.2L294.1,476.2c-0.5-0.9-1.7-1.3-2.6-0.8l-7.9,4.1l-2.7-154.2h-0.2l-4.1,222.3h8.2l-1.1-63.8l9.6-5
	C294.2,478.3,294.6,477.1,294.1,476.2z"/>
<path class="st6" d="M392.9,118.9c54.9,0,99.5,103.4,99.5,172.1S447.9,415.3,393,415.3s-99.3-55.7-99.3-124.4
	S338.1,118.9,392.9,118.9z"/>
<path class="st3" d="M410.3,456.1c-0.6-1.2-2.1-1.7-3.3-1c0,0,0,0,0,0l-9.9,5.2L393.6,265h-0.3l-5.2,281.7h10.4l-1.4-80.8l12.1-6.4
	C410.4,458.8,410.9,457.3,410.3,456.1C410.3,456.1,410.3,456.1,410.3,456.1z"/>
<path class="st0" d="M610.2,570.6H35c-18.2,0-33-14.8-33-33v-307c0-18.2,14.8-33,33-33h575.2c18.2,0,33,14.8,33,33v307
	C643.2,555.8,628.4,570.5,610.2,570.6z"/>
<path class="st2" d="M453.9,544.6H82.5c-0.5,0-0.9,0-1.4,0l175.7-98.9c3.3-1.9,10.8-2.6,16.8-1.5c1.6,0.2,3.2,0.8,4.6,1.5L396.1,512
	l5.6,3.2L453.9,544.6z"/>
<path class="st2" d="M571.1,544.6H249.8l62.3-29.4l4.5-2.1l81.1-38.3c5.3-2.5,18.1-2.7,24.4-0.5c0.4,0.1,0.8,0.3,1.2,0.5
	L571.1,544.6z"/>
<path class="st3" d="M610.2,570.6H35c-18.2,0-33-14.8-33-33v-307c0-18.2,14.8-33,33-33h575.2c18.2,0,33,14.8,33,33v307
	C643.2,555.8,628.4,570.5,610.2,570.6z M35,199.6c-17.1,0-31,13.9-31,31v307c0,17.1,13.9,31,31,31h575.2c17.1,0,31-13.9,31-31v-307
	c0-17.1-13.9-31-31-31H35z"/>
<path class="st4" d="M610.2,546.6H35c-5,0-9-4-9-9v-307c0-5,4-9,9-9h575.2c5,0,9,4,9,9v307C619.2,542.5,615.1,546.6,610.2,546.6z
	 M35,223.6c-3.9,0-7,3.1-7,7v307c0,3.9,3.1,7,7,7h575.2c3.9,0,7-3.1,7-7v-307c0-3.9-3.1-7-7-7H35z"/>
<ellipse transform="matrix(0.7071 -0.7071 0.7071 0.7071 -11.4557 404.0609)" class="st7" cx="482" cy="215.9" rx="61.9" ry="61.9"/>
<ellipse class="st1" cx="507.9" cy="343.1" rx="78.4" ry="98.1"/>
<polygon class="st4" points="508.1,323.4 508.3,323.4 512.2,545.7 504,545.7 "/>
<path class="st4" d="M521.5,470.5L521.5,470.5c0.5,0.9,0.1,2.1-0.8,2.6l-11.2,5.9l-1.8-3.4l11.2-5.9
	C519.8,469.2,521,469.6,521.5,470.5z"/>
<ellipse class="st1" cx="282.5" cy="343.1" rx="78.4" ry="98.1"/>
<path class="st4" d="M296.1,474.2L296.1,474.2c-0.5-0.9-1.7-1.3-2.6-0.8l-7.9,4.1l-2.7-154.2h-0.2l-4.1,222.3h8.2l-1.1-63.8l9.6-5
	C296.2,476.3,296.6,475.1,296.1,474.2z"/>
<path class="st8" d="M394.9,116.9c54.9,0,99.5,103.4,99.5,172.1S449.9,413.3,395,413.3s-99.3-55.7-99.3-124.4
	S340.1,116.9,394.9,116.9z"/>
<path class="st3" d="M412.3,454.1c-0.6-1.2-2.1-1.7-3.3-1c0,0,0,0,0,0l-9.9,5.2L395.6,263h-0.3l-5.2,281.7h10.4l-1.4-80.8l12.1-6.4
	C412.4,456.8,412.9,455.3,412.3,454.1C412.3,454.1,412.3,454.1,412.3,454.1z"/>
</svg>
